<svg xmlns="http://www.w3.org/2000/svg" viewBox="0 0 400 400"><style>svg { background: black; }</style><circle cx="200" cy="200" r="200" fill="#fff"/><path fill="#dbdbdb" d="M145.05 42.5h110a23.5 23.5 0 0 1 23.5 23.5v267.7a23.5 23.5 0 0 1-23.5 23.5h-110a23.6 23.6 0 0 1-23.6-23.6V66a23.5 23.5 0 0 1 23.6-23.5z"/><path fill="#b4b4b4" d="M202.6 332.5a2.2 2.2 0 0 1 2.2 2.2v5.3a2.2 2.2 0 0 1-2.2 2.2h-5.2a2.2 2.2 0 0 1-2.3-2.2v-5.3a2.2 2.2 0 0 1 2.3-2.2h5.2m0-.8h-5.2a2.9 2.9 0 0 0-3 3v5.3a3 3 0 0 0 3 3h5.2a3 3 0 0 0 3-3v-5.3a2.9 2.9 0 0 0-3-3z"/><path fill="#707070" d="M211.15 69.9h-22.3a3.1 3.1 0 0 0-3 3 3 3 0 0 0 3 3h22.3a3 3 0 0 0 3-3 3.1 3.1 0 0 0-3-3z"/><path fill="#464646" d="M200 57.3a2.9 2.9 0 1 0 2.9 2.9 2.9 2.9 0 0 0-2.9-2.9z"/><path fill="#b7b7b7" d="M184.6 190.5c0 5.3 3.4 9.5 6.9 11.7l-2.4 20.8h3.6l5.9-47.1c-7.6 0-14 6.5-14 14.6z"/><path fill="#959595" d="M212.1 190.4c0-8.4-7.3-14.5-13.5-14.5-1.8 0-10.7 5.2-10.7 13.8 0 6.9 4.1 9.9 6.9 12.1l-2.1 21.2H208l-2.6-21c3.4-2.5 6.7-5.5 6.7-11.6z"/><path fill="#b7b7b7" d="M126.4 157.5c-11.7 0-21.1 14.8-21.1 33.1s9.4 33 21.1 33c11.7 0 21.1-14.8 21.1-33s-9.5-33.1-21.1-33.1zm-2.7 53.2c-6.7 0-12.2-9.2-12.2-20.4s5.5-20.5 12.2-20.5c6.7 0 12.3 9.2 12.3 20.5s-5.5 20.4-12.3 20.4z"/><path fill="#959595" d="M105.4 190.6c0-18.3 9.4-33 21-33.1h-2.2c-12.9 0-23.4 14.9-23.4 33.3s10.5 33.4 23.4 33.4a20 20 0 0 0 4.9-.7l-2.6.2c-11.7-.1-21.1-14.9-21.1-33.1z"/><path fill="#959595" d="M123.7 169.8c6.8 0 12.3 9.1 12.3 20.3 0 11.2-5.5 20.5-12.3 20.5h-.9a9.7 9.7 0 0 0 2.4.1c8.1 0 14.6-9.4 14.6-21s-5.7-21.1-13.8-21a10.3 10.3 0 0 0-4.1 1 7 7 0 0 0-1.5.9 8.4 8.4 0 0 1 3.3-.8"/><path fill="#a1a1a1" d="M194.8 182v16h14.9a12.3 12.3 0 0 0 2.4-7.6 14.1 14.1 0 0 0-2.8-8.4z"/><path fill="#b7b7b7" d="M202 198h-55.1l-.2-16h48.1a7.2 7.2 0 0 1 5.4 2.5 6.4 6.4 0 0 1 1.8 4.7z" style="isolation:isolate"/><path fill="#a1a1a1" d="m146.9 198 .6-7.4 54.5.4v7z"/><circle cx="200" cy="337.129" r="11.879" fill="none" stroke="#b4b4b4" stroke-width=".7"/></svg>
