<?xml version="1.0" encoding="UTF-8" standalone="no"?>
<svg
   viewBox="0 0 52.501419 100"
   version="1.1"
   id="svg10"
   sodipodi:docname="2fadirectory-logo.svg"
   inkscape:version="1.1.1 (eb90963e84, 2021-10-02)"
   width="52.501419"
   height="100"
   xmlns:inkscape="http://www.inkscape.org/namespaces/inkscape"
   xmlns:sodipodi="http://sodipodi.sourceforge.net/DTD/sodipodi-0.dtd"
   xmlns="http://www.w3.org/2000/svg"
   xmlns:svg="http://www.w3.org/2000/svg">
  <defs
     id="defs14" />
  <sodipodi:namedview
     id="namedview12"
     pagecolor="#ffffff"
     bordercolor="#666666"
     borderopacity="1.0"
     inkscape:pageshadow="2"
     inkscape:pageopacity="0.0"
     inkscape:pagecheckerboard="0"
     showgrid="false"
     inkscape:snap-bbox="true"
     inkscape:bbox-paths="true"
     inkscape:bbox-nodes="false"
     inkscape:snap-bbox-edge-midpoints="false"
     inkscape:snap-bbox-midpoints="false"
     inkscape:snap-nodes="true"
     inkscape:zoom="4"
     inkscape:cx="84.875"
     inkscape:cy="45.75"
     inkscape:window-width="1920"
     inkscape:window-height="1021"
     inkscape:window-x="1920"
     inkscape:window-y="35"
     inkscape:window-maximized="1"
     inkscape:current-layer="svg10">
    <inkscape:grid
       type="xygrid"
       id="grid1470"
       originx="1.5014208"
       originy="0" />
  </sodipodi:namedview>
  <rect
     width="2"
     height="12"
     x="1.501421"
     y="23"
     rx="0.5"
     ry="0.60000002"
     id="rect2"
     style="paint-order:stroke fill markers" />
  <rect
     width="48"
     height="98"
     x="3.501421"
     y="1"
     fill="#464646"
     stroke="#000000"
     stroke-width="2"
     ry="7.8000002"
     id="rect4"
     style="fill:#dcdcdc;paint-order:stroke fill markers" />
  <path
     stroke="#000000"
     stroke-width="2"
     d="m 17.501421,2 h 20 v 0.5 c 0,0.8 -0.7,1.5 -1.5,1.5 h -17 c -0.8,0 -1.5,-0.7 -1.5,-1.5 z"
     id="path6"
     style="paint-order:stroke fill markers" />
  <path
     id="path1251-9"
     style="fill:#959595;fill-opacity:1;stroke-width:0.824755;paint-order:stroke fill markers"
     d="m 27.001421,41.680076 a 4.8461904,4.8461904 0 0 0 -4.84619,4.846191 4.8461904,4.8461904 0 0 0 3.132985,4.519639 l -1.083766,7.274018 h 5.868433 l -1.097965,-7.371036 a 4.8461904,4.8461904 0 0 0 2.872693,-4.422621 4.8461904,4.8461904 0 0 0 -4.84619,-4.846191 z" />
  <path
     id="path6436-2-1"
     style="fill:#a1a1a1;fill-opacity:1;stroke:none;stroke-width:0.848083;paint-order:stroke fill markers"
     d="M 6.0577382,38.319924 A 6.057738,8.4808332 0 0 0 1.6e-7,46.800757 6.057738,8.4808332 0 0 0 6.0577382,55.281591 6.057738,8.4808332 0 0 0 12.115476,46.800757 6.057738,8.4808332 0 0 0 6.0577382,38.319924 Z m 0,4.240417 a 3.028869,4.2404166 0 0 1 3.028869,4.240416 3.028869,4.2404166 0 0 1 -3.028869,4.240417 3.028869,4.2404166 0 0 1 -3.028869,-4.240417 3.028869,4.2404166 0 0 1 3.028869,-4.240416 z" />
  <path
     id="path12-2"
     style="fill:#a1a1a1;fill-opacity:1;stroke-width:0.363283"
     d="m 11.388548,43.548966 v 5.674887 L 30.8818,49.360606 c 0.03927,-0.03927 0.07919,-0.08511 0.118319,-0.127781 0.546045,-0.797666 0.841064,-1.740406 0.847137,-2.70705 -7.35e-4,-1.078647 -0.361306,-2.126219 -1.024609,-2.976811 -0.101019,0 -19.434099,2e-6 -19.434099,2e-6 z"
     sodipodi:nodetypes="ccccccc" />
  <path
     id="rect6052-7"
     style="fill:#b7b7b7;fill-opacity:1;stroke-width:0.943917;paint-order:stroke fill markers"
     d="m 11.388548,43.548966 h 13.327023 c 0.941797,0 1.211548,0.828696 1.211548,0.828696 v 2.423095 H 11.388548 Z"
     sodipodi:nodetypes="cccccc" />
  <path
     id="path6436-0"
     style="fill:#b7b7b7;fill-opacity:1;stroke:none;stroke-width:0.848083;paint-order:stroke fill markers"
     d="m 6.5423572,38.319924 a 6.057738,8.4808332 0 0 0 -6.057738,8.480833 6.057738,8.4808332 0 0 0 6.057738,8.480834 6.057738,8.4808332 0 0 0 6.0577378,-8.480834 6.057738,8.4808332 0 0 0 -6.0577378,-8.480833 z m 0,4.240417 a 3.028869,4.2404166 0 0 1 3.028869,4.240416 3.028869,4.2404166 0 0 1 -3.028869,4.240417 3.028869,4.2404166 0 0 1 -3.028869,-4.240417 3.028869,4.2404166 0 0 1 3.028869,-4.240416 z" />
</svg>
