<svg width="52.501" height="100" xmlns="http://www.w3.org/2000/svg">
  <g paint-order="stroke fill markers" transform="translate(-47.499)">
    <rect width="2" height="12" x="49" y="23" rx=".5" ry=".6"/>
    <rect width="48" height="98" x="51" y="1" fill="#464646" stroke="#000" stroke-width="2" ry="7.8"/>
    <path stroke="#000" stroke-width="2" d="M65 2h20v.5c0 .8-.7 1.5-1.5 1.5h-17c-.8 0-1.5-.7-1.5-1.5Z"/>
  </g>
  <path style="fill:#959595;fill-opacity:1;stroke-width:.680745;paint-order:stroke fill markers" d="M33.887 59.773a4 4 0 0 0-4 4 4 4 0 0 0 2.586 3.73l-.895 6.005h4.844l-.906-6.084a4 4 0 0 0 2.37-3.65 4 4 0 0 0-4-4z" transform="matrix(1.21155 0 0 1.21155 -14.054 -30.738)"/>
  <path style="fill:#a1a1a1;fill-opacity:1;stroke:none;stroke-width:.7;paint-order:stroke fill markers" d="M16.6 57a5 7 0 0 0-5 7 5 7 0 0 0 5 7 5 7 0 0 0 5-7 5 7 0 0 0-5-7zm0 3.5a2.5 3.5 0 0 1 2.5 3.5 2.5 3.5 0 0 1-2.5 3.5 2.5 3.5 0 0 1-2.5-3.5 2.5 3.5 0 0 1 2.5-3.5z" transform="matrix(1.21155 0 0 1.21155 -14.054 -30.738)"/>
  <path style="fill:#a1a1a1;fill-opacity:1;stroke-width:.29985" d="M21 61.316V66l16.09.113c.032-.033.065-.07.097-.106a4 4 0 0 0 .7-2.234 4 4 0 0 0-.846-2.457H21z" transform="matrix(1.21155 0 0 1.21155 -14.054 -30.738)"/>
  <path style="fill:#b7b7b7;fill-opacity:1;stroke-width:.7791;paint-order:stroke fill markers" d="M21 61.316h11c.777 0 1 .684 1 .684v2H21Z" transform="matrix(1.21155 0 0 1.21155 -14.054 -30.738)"/>
  <path style="fill:#b7b7b7;fill-opacity:1;stroke:none;stroke-width:.7;paint-order:stroke fill markers" d="M17 57a5 7 0 0 0-5 7 5 7 0 0 0 5 7 5 7 0 0 0 5-7 5 7 0 0 0-5-7zm0 3.5a2.5 3.5 0 0 1 2.5 3.5 2.5 3.5 0 0 1-2.5 3.5 2.5 3.5 0 0 1-2.5-3.5 2.5 3.5 0 0 1 2.5-3.5Z" transform="matrix(1.21155 0 0 1.21155 -14.054 -30.738)"/>
</svg>
