<svg xmlns="http://www.w3.org/2000/svg" viewBox="0 0 52.7 100"><rect width="2" height="12" x="1.7" y="23" fill="#333" rx=".5" ry=".6"/><rect width="48" height="98" x="3.7" y="1" fill="#dcdcdc" stroke="#333" stroke-width="2" ry="7.8"/><path fill="#333" stroke="#333" stroke-width="2" d="M17.7 2h20v.5c0 .8-.7 1.5-1.5 1.5h-17c-.8 0-1.5-.7-1.5-1.5z"/><path fill="#959595" d="M27.2 41.68a4.85 4.85 0 0 0-4.84 4.85 4.85 4.85 0 0 0 3.13 4.52l-1.09 7.27h5.87l-1.1-7.37a4.85 4.85 0 0 0 2.88-4.42 4.85 4.85 0 0 0-4.85-4.85zM6.06 38.32A6.06 8.48 0 0 0 0 46.8a6.06 8.48 0 0 0 6.06 8.48 6.06 8.48 0 0 0 6.06-8.48 6.06 8.48 0 0 0-6.06-8.48Zm0 4.24a3.03 4.24 0 0 1 3.03 4.24 3.03 4.24 0 0 1-3.03 4.24 3.03 4.24 0 0 1-3.03-4.24 3.03 4.24 0 0 1 3.03-4.24z"/><path fill="#a1a1a1" d="M11.59 43.55v5.67l19.5.14.11-.13a4.85 4.85 0 0 0-.18-5.68H11.6z"/><path fill="#b7b7b7" d="M11.59 43.55h13.33c.94 0 1.2.83 1.2.83v2.42H11.6Z"/><path fill="#b7b7b7" d="M6.74 38.32A6.06 8.48 0 0 0 .68 46.8a6.06 8.48 0 0 0 6.06 8.48 6.06 8.48 0 0 0 6.06-8.48 6.06 8.48 0 0 0-6.06-8.48zm0 4.24a3.03 4.24 0 0 1 3.03 4.24 3.03 4.24 0 0 1-3.03 4.24 3.03 4.24 0 0 1-3.03-4.24 3.03 4.24 0 0 1 3.03-4.24z"/></svg>
