<?xml version="1.0" encoding="utf-8"?>
<!-- Generator: Adobe Illustrator 23.0.1, SVG Export Plug-In . SVG Version: 6.00 Build 0)  -->
<svg version="1.2" baseProfile="tiny" id="Layer_1" xmlns="http://www.w3.org/2000/svg" xmlns:xlink="http://www.w3.org/1999/xlink"
	 x="0px" y="0px" viewBox="0 0 1080 1080" xml:space="preserve">
<g id="XMLID_1_">
	<g>
		<circle fill="#CBCBCB" cx="540" cy="540" r="540"/>
		<circle fill="#FFFFFF" stroke="#CBCBCB" stroke-miterlimit="10" cx="540" cy="540" r="445"/>
		<path fill="#7C7C7C" d="M674.7,205.5H402.8c-37.67,0-68.17,30.63-68,68.3l-0.27,546.47c-0.02,37.65,30.55,68.14,68.2,68.03
			l271.75,0.16c37.56,0.02,68.03-30.42,68.04-67.98l0.18-547.18C742.59,235.82,712.18,205.5,674.7,205.5z"/>
		<polygon fill="#FFFFFF" stroke="#7C7C7C" stroke-miterlimit="10" points="676,341.5 676,753 676,753 401,753 401,341 676,341 		
			"/>
		<circle fill="#FFFFFF" cx="540" cy="819" r="42.5"/>
		<path fill="#FFFFFF" d="M585.5,273.5h-90c-6.6,0-12-5.4-12-12v-10c0-6.6,5.4-12,12-12h90c6.6,0,12,5.4,12,12v10
			C597.5,268.1,592.1,273.5,585.5,273.5z"/>
	</g>
</g>
</svg>
