<svg xmlns="http://www.w3.org/2000/svg" xmlns:xlink="http://www.w3.org/1999/xlink" viewBox="0 0 1280 640"><defs><linearGradient id="b"><stop offset="0" stop-color="#2f343c"/><stop offset="1" stop-color="#2c2c2c"/></linearGradient><linearGradient id="a"><stop offset="0" stop-color="#777" stop-opacity=".9"/><stop offset="1" stop-color="#bdbdbd" stop-opacity="0"/></linearGradient><linearGradient xlink:href="#a" id="d" x1="0" x2="1920" y1="35" y2="1080" gradientTransform="translate(-1920 .1)" gradientUnits="userSpaceOnUse"/><linearGradient xlink:href="#b" id="c" x1="9.4" x2="1892.9" y1="1076.3" y2="17.1" gradientUnits="userSpaceOnUse"/></defs><g fill="none"><path d="M0 0h53.3v640H0Z"/><path d="M0 0h1280v53.3H0Z"/><path d="M1226.7 0h53.3v640h-53.3z"/><path d="M0 586.7h1280V640H0Z"/></g><g transform="rotate(90 615.6 758.8) scale(.75)"><image xlink:href="screenshot.png" width="1080" height="810" x="-1090.9" y="16.4" image-rendering="optimizeQuality" preserveAspectRatio="none" transform="rotate(-90)"/><g fill="none" transform="matrix(0 -.56811 .76473 0 2 1097.9)"><rect width="1920" height="1080" y="10" stroke="url(#c)" stroke-width="25" rx="35" ry="35"/><rect width="1939.9" height="1099.9" x="-1929.9" y=".1" stroke="url(#d)" stroke-width="5.1" opacity=".9" rx="45" ry="45" transform="scale(-1 1)"/></g></g><g transform="matrix(.5 0 0 .5 172.5 98.5)"><circle cx="175.6" cy="198.1" r="217.6" fill="#fff" stroke="#fff"/><path fill="#dbdbdb" d="M125.6 40.6h110a23.5 23.5 0 0 1 23.5 23.5v267.7a23.5 23.5 0 0 1-23.5 23.5h-110a23.6 23.6 0 0 1-23.6-23.6V64.1a23.5 23.5 0 0 1 23.6-23.5z"/><path fill="#b4b4b4" d="M182.6 323.8a11.7 11.7 0 1 1-11.6 11.7 11.6 11.6 0 0 1 11.6-11.7m0-.8a12.5 12.5 0 1 0 12.4 12.4 12.4 12.4 0 0 0-12.4-12.4Z"/><path fill="#b4b4b4" d="M185.2 330.6a2.2 2.2 0 0 1 2.2 2.2v5.3a2.2 2.2 0 0 1-2.2 2.2H180a2.2 2.2 0 0 1-2.3-2.2v-5.3a2.2 2.2 0 0 1 2.3-2.2h5.2m0-.8H180a2.9 2.9 0 0 0-3 3v5.3a3 3 0 0 0 3 3h5.2a3 3 0 0 0 3-3v-5.3a2.9 2.9 0 0 0-3-3z"/><path fill="#707070" d="M192.4 68h-22.3a3.1 3.1 0 0 0-3 3 3 3 0 0 0 3 3h22.3a3 3 0 0 0 3-3 3.1 3.1 0 0 0-3-3z"/><path fill="#464646" d="M181.2 55.4a2.9 2.9 0 1 0 2.9 2.9 2.9 2.9 0 0 0-2.9-2.9z"/><path fill="#b7b7b7" d="M167.2 188.6c0 5.3 3.4 9.5 6.9 11.7l-2.4 20.8h3.6l5.9-47.1c-7.6 0-14 6.5-14 14.6z"/><path fill="#959595" d="M194.7 188.5c0-8.4-7.3-14.5-13.5-14.5-1.8 0-10.7 5.2-10.7 13.8 0 6.9 4.1 9.9 6.9 12.1l-2.1 21.2h15.3l-2.6-21c3.4-2.5 6.7-5.5 6.7-11.6z"/><path fill="#b7b7b7" d="M109 155.6c-11.7 0-21.1 14.8-21.1 33.1s9.4 33 21.1 33c11.7 0 21.1-14.8 21.1-33s-9.5-33.1-21.1-33.1zm-2.7 53.2c-6.7 0-12.2-9.2-12.2-20.4s5.5-20.5 12.2-20.5c6.7 0 12.3 9.2 12.3 20.5s-5.5 20.4-12.3 20.4z"/><path fill="#959595" d="M88 188.7c0-18.3 9.4-33 21-33.1h-2.2c-12.9 0-23.4 14.9-23.4 33.3s10.5 33.4 23.4 33.4a20 20 0 0 0 4.9-.7l-2.6.2c-11.7-.1-21.1-14.9-21.1-33.1z"/><path fill="#959595" d="M106.3 167.9c6.8 0 12.3 9.1 12.3 20.3 0 11.2-5.5 20.5-12.3 20.5h-.9a9.7 9.7 0 0 0 2.4.1c8.1 0 14.6-9.4 14.6-21s-5.7-21.1-13.8-21a10.3 10.3 0 0 0-4.1 1 7 7 0 0 0-1.5.9 8.4 8.4 0 0 1 3.3-.8"/><path fill="#a1a1a1" d="M177.4 180.1v16h14.9a12.3 12.3 0 0 0 2.4-7.6 14.1 14.1 0 0 0-2.8-8.4z"/><path fill="#b7b7b7" d="M184.6 196.1h-55.1l-.2-16h48.1a7.2 7.2 0 0 1 5.4 2.5 6.4 6.4 0 0 1 1.8 4.7z"/><path fill="#a1a1a1" d="M184.6 189.1v7h-55.1l.6-7.4z"/></g><text xml:space="preserve" fill="#363636" font-family="'SF Pro Display'" font-size="65.5" letter-spacing="2.8" style="line-height:1.25;white-space:pre;shape-inside:url(#rect2796)" text-anchor="middle" transform="translate(258.1 379.7) scale(1.0689)"><tspan font-family="Roboto" font-weight="300">2factorauth</tspan></text><text xml:space="preserve" x="254.3" y="450" fill="#363636" font-family="'Coop Bank'" font-size="36" letter-spacing="2" style="line-height:1.1;white-space:pre" text-anchor="middle"><tspan font-family="'SF Pro Display'" font-weight="300">Making the web more
secure, one website
at a time...</tspan></text></svg>
